<svg height="480pt" viewBox="-8 0 480 480.00027" width="480pt" xmlns="http://www.w3.org/2000/svg"><path d="m280 376c-17.671875 0-32 14.328125-32 32s14.328125 32 32 32 32-14.328125 32-32-14.328125-32-32-32zm0 48c-8.835938 0-16-7.164062-16-16s7.164062-16 16-16 16 7.164062 16 16-7.164062 16-16 16zm0 0"/><path d="m360 296c-17.671875 0-32 14.328125-32 32v80c0 17.671875 14.328125 32 32 32s32-14.328125 32-32v-80c0-17.671875-14.328125-32-32-32zm16 112c0 8.835938-7.164062 16-16 16s-16-7.164062-16-16v-80c0-8.835938 7.164062-16 16-16s16 7.164062 16 16zm0 0"/><path d="m280 296c-17.671875 0-32 14.328125-32 32s14.328125 32 32 32 32-14.328125 32-32-14.328125-32-32-32zm0 48c-8.835938 0-16-7.164062-16-16s7.164062-16 16-16 16 7.164062 16 16-7.164062 16-16 16zm0 0"/><path d="m280 216c-17.671875 0-32 14.328125-32 32s14.328125 32 32 32 32-14.328125 32-32-14.328125-32-32-32zm0 48c-8.835938 0-16-7.164062-16-16s7.164062-16 16-16 16 7.164062 16 16-7.164062 16-16 16zm0 0"/><path d="m200 216c-17.671875 0-32 14.328125-32 32s14.328125 32 32 32 32-14.328125 32-32-14.328125-32-32-32zm0 48c-8.835938 0-16-7.164062-16-16s7.164062-16 16-16 16 7.164062 16 16-7.164062 16-16 16zm0 0"/><path d="m360 216c-17.671875 0-32 14.328125-32 32s14.328125 32 32 32 32-14.328125 32-32-14.328125-32-32-32zm0 48c-8.835938 0-16-7.164062-16-16s7.164062-16 16-16 16 7.164062 16 16-7.164062 16-16 16zm0 0"/><path d="m280 136c-17.671875 0-32 14.328125-32 32s14.328125 32 32 32 32-14.328125 32-32-14.328125-32-32-32zm0 48c-8.835938 0-16-7.164062-16-16s7.164062-16 16-16 16 7.164062 16 16-7.164062 16-16 16zm0 0"/><path d="m360 136c-17.671875 0-32 14.328125-32 32s14.328125 32 32 32 32-14.328125 32-32-14.328125-32-32-32zm0 48c-8.835938 0-16-7.164062-16-16s7.164062-16 16-16 16 7.164062 16 16-7.164062 16-16 16zm0 0"/><path d="m120 200h80c17.671875 0 32-14.328125 32-32s-14.328125-32-32-32h-80c-17.671875 0-32 14.328125-32 32s14.328125 32 32 32zm0-48h80c8.835938 0 16 7.164062 16 16s-7.164062 16-16 16h-80c-8.835938 0-16-7.164062-16-16s7.164062-16 16-16zm0 0"/><path d="m96 120h288c4.417969 0 8-3.582031 8-8v-64c0-4.417969-3.582031-8-8-8h-288c-4.417969 0-8 3.582031-8 8v64c0 4.417969 3.582031 8 8 8zm8-64h272v48h-272zm0 0"/><path d="m432 448v-416c0-17.671875-14.328125-32-32-32h-320c-17.671875 0-32 14.328125-32 32v294.871094c-3.519531 3.894531-6.496094 8.246094-8.847656 12.9375-4.691406 9.410156-7.140625 19.78125-7.152344 30.296875-.023438 15.566406 3.277344 30.957031 9.6875 45.140625l17.824219 39.625c8.980469 19.941406 31.59375 29.855468 52.34375 22.945312l16.144531-5.382812 16.152344 5.382812c2.554687.820313 5.183594 1.398438 7.847656 1.726563v.457031h248c17.671875 0 32-14.328125 32-32zm-352-432h320c8.835938 0 16 7.164062 16 16v416c0 8.835938-7.164062 16-16 16h-209.207031c2.273437-2.789062 4.1875-5.855469 5.695312-9.128906l17.824219-39.625c6.410156-14.183594 9.710938-29.574219 9.6875-45.140625-.011719-10.515625-2.460938-20.886719-7.152344-30.296875-7.089844-14.273438-19.800781-24.945313-35.082031-29.464844-15.28125-4.515625-31.753906-2.46875-45.460937 5.65625.417968-5.722656 1.445312-11.386719 3.070312-16.886719v-.074219c3.828125-12.695312 10.75-24.242187 20.144531-33.597656l-11.3125-11.3125c-5.3125 5.351563-9.980469 11.3125-13.910156 17.75-9.183594-18.617187-28.128906-30.421875-48.886719-30.453125-4.421875 0-8 3.578125-8 8 .042969 26.230469 18.71875 48.726563 44.492188 53.597657-.84375 4.417968-1.378906 8.890624-1.597656 13.382812-17.121094-10.535156-38.546876-11.21875-56.304688-1.789062v-282.617188c0-8.835938 7.164062-16 16-16zm42.929688 270.921875c-14.039063-3.433594-25.003907-14.394531-28.433594-28.433594 14.039062 3.429688 25 14.390625 28.433594 28.433594zm7.597656 169.484375c-1.640625-.542969-3.414063-.542969-5.054688 0l-18.664062 6.226562c-12.949219 4.089844-26.921875-2.03125-32.695313-14.320312l-17.832031-39.625c-5.472656-12.125-8.296875-25.28125-8.28125-38.582031.007812-8.03125 1.878906-15.953125 5.464844-23.136719 5.609375-11.222656 15.988281-19.308594 28.242187-22 12.253907-2.691406 25.066407.296875 34.859375 8.136719l6.402344 5.140625c2.921875 2.34375 7.078125 2.34375 10 0l6.398438-5.140625c9.796874-7.839844 22.609374-10.828125 34.863281-8.136719 12.253906 2.691406 22.632812 10.777344 28.242187 22 3.605469 7.179688 5.5 15.097656 5.527344 23.136719.015625 13.300781-2.804688 26.457031-8.28125 38.582031l-17.832031 39.617188c-5.601563 12.457031-19.726563 18.652343-32.6875 14.328124zm0 0"/><path d="m344 72h16v16h-16zm0 0"/><path d="m312 72h16v16h-16zm0 0"/><path d="m280 72h16v16h-16zm0 0"/><path d="m41 452.71875-13.894531-30.902344c-7.34375-16.25-11.132813-33.878906-11.105469-51.710937.007812-13 3.019531-25.816407 8.800781-37.457031 1.667969-3.335938 3.574219-6.542969 5.710938-9.601563l-13.085938-9.199219c-2.601562 3.695313-4.921875 7.582032-6.9375 11.625-6.894531 13.867188-10.4804685 29.144532-10.488281 44.632813-.03125 20.089843 4.234375 39.957031 12.503906 58.269531l13.894532 30.90625zm0 0"/><path d="m448 72h16v176h-16zm0 0"/><path d="m448 264h16v16h-16zm0 0"/></svg>