<svg id="color" enable-background="new 0 0 24 24" height="512" viewBox="0 0 24 24" width="512" xmlns="http://www.w3.org/2000/svg"><path d="m9 9.5c-.552 0-1-.447-1-1v-3c0-.553.448-1 1-1s1 .447 1 1v3c0 .553-.448 1-1 1z" fill="#cfd8dc"/><path d="m15 9.5c-.552 0-1-.447-1-1v-3c0-.553.448-1 1-1s1 .447 1 1v3c0 .553-.448 1-1 1z" fill="#cfd8dc"/><path d="m20.764 6h-17.66c-1.131 0-2.133-.679-2.553-1.729l-.497-1.243c-.092-.23-.064-.493.075-.699.14-.206.372-.329.621-.329h22.5c.26 0 .501.135.638.355.136.222.149.497.033.729l-.697 1.395c-.469.939-1.411 1.521-2.46 1.521z" fill="#00bcd4"/><path d="m19 22h-14c-1.206 0-2.138-1.064-1.984-2.256l1.256-9.151c.203-1.479 1.481-2.593 2.972-2.593h9.512c1.491 0 2.769 1.114 2.972 2.592l1.255 9.146c.158 1.2-.78 2.262-1.983 2.262z" fill="#00bcd4"/><path d="m11.665 17.921c-.371-.186-.521-.636-.335-1.006l.75-1.5c.185-.372.637-.52 1.006-.336.371.186.521.636.335 1.006l-.75 1.5c-.183.367-.632.522-1.006.336z" fill="#fff"/><path d="m15.75 17.25c-.414 0-.75-.336-.75-.75 0-1.654-1.346-3-3-3s-3 1.346-3 3c0 .414-.336.75-.75.75s-.75-.336-.75-.75c0-2.481 2.019-4.5 4.5-4.5s4.5 2.019 4.5 4.5c0 .414-.336.75-.75.75z" fill="#fff"/><path d="m8 6h1v2h-1z" fill="#b4bcc0"/><path d="m14 6h1v2h-1z" fill="#b4bcc0"/><path d="m12 2h-11.25c-.249 0-.481.123-.621.329s-.167.469-.075.699l.497 1.243c.42 1.05 1.422 1.729 2.553 1.729h4.896 2 2z" fill="#00a4b9"/><path d="m12 8h-2-2-.756c-1.491 0-2.769 1.114-2.972 2.593l-1.256 9.151c-.154 1.192.778 2.256 1.984 2.256h7v-4h-.001c-.112 0-.227-.025-.335-.079-.371-.186-.521-.636-.335-1.006l.671-1.342v-2.073c-1.654 0-3 1.346-3 3 0 .414-.336.75-.75.75s-.75-.336-.75-.75c0-2.481 2.019-4.5 4.5-4.5z" fill="#00a4b9"/><g fill="#dedede"><path d="m12 15.573-.671 1.342c-.185.37-.035.82.335 1.006.109.054.223.079.335.079h.001z"/><path d="m12 12c-2.481 0-4.5 2.019-4.5 4.5 0 .414.336.75.75.75s.75-.336.75-.75c0-1.654 1.346-3 3-3z"/></g></svg>