<?xml version="1.0" encoding="UTF-8" standalone="no"?>
<svg
   xmlns:dc="http://purl.org/dc/elements/1.1/"
   xmlns:cc="http://creativecommons.org/ns#"
   xmlns:rdf="http://www.w3.org/1999/02/22-rdf-syntax-ns#"
   xmlns:svg="http://www.w3.org/2000/svg"
   xmlns="http://www.w3.org/2000/svg"
   xmlns:sodipodi="http://sodipodi.sourceforge.net/DTD/sodipodi-0.dtd"
   xmlns:inkscape="http://www.inkscape.org/namespaces/inkscape"
   id="Outline"
   viewBox="0 0 512 512"
   width="512"
   height="512"
   version="1.1"
   sodipodi:docname="search.svg"
   inkscape:version="1.0.2 (e86c870879, 2021-01-15)">
  <metadata
     id="metadata13">
    <rdf:RDF>
      <cc:Work
         rdf:about="">
        <dc:format>image/svg+xml</dc:format>
        <dc:type
           rdf:resource="http://purl.org/dc/dcmitype/StillImage" />
        <dc:title></dc:title>
      </cc:Work>
    </rdf:RDF>
  </metadata>
  <defs
     id="defs11" />
  <sodipodi:namedview
     pagecolor="#ffff12"
     bordercolor="#666666"
     borderopacity="1"
     objecttolerance="10"
     gridtolerance="10"
     guidetolerance="10"
     inkscape:pageopacity="0"
     inkscape:pageshadow="2"
     inkscape:window-width="1366"
     inkscape:window-height="704"
     id="namedview9"
     showgrid="false"
     inkscape:zoom="0.9051897"
     inkscape:cx="256.98439"
     inkscape:cy="256"
     inkscape:window-x="0"
     inkscape:window-y="312"
     inkscape:window-maximized="1"
     inkscape:current-layer="Outline"
     inkscape:document-rotation="0" />
  <path
     d="M 161.43737,305.446 A -182.962,182.962 0 0 1 128.13737,200 c 0,-101.458 82.542,-184 184,-184 101.458,0 184,82.542 184,184 0,101.458 -82.542,184 -184,184 a -182.962,182.962 0 0 1 -105.446,-33.3 L 70.764372,486.627 a -32,32 0 1 1 -45.254,-45.254 z M 480.13737,200 c 0,-92.636 -75.364,-168 -168,-168 -92.636,0 -168,75.364 -168,168 0,92.636 75.364,168 168,168 92.636,0 168,-75.364 168,-168 z m -308.863,118.236 -23.824,23.823 22.628,22.628 23.823,-23.824 a -185.572,185.572 0 0 1 -22.627,-22.627 z M 36.823372,475.314 a -16,16 0 0 0 22.628,0 L 158.76437,376 l -22.627,-22.627 -99.313998,99.313 a -16,16 0 0 0 0,22.628 z"
     id="path2"
     style="fill:#ffffff;stroke:#ffffff;stroke-opacity:1;stroke-width:7.2;stroke-miterlimit:4;stroke-dasharray:none" />
  <path
     d="m 312.13737,56 c 79.4,0 144,64.6 144,144 0,79.4 -64.6,144 -144,144 -79.4,0 -144,-64.6 -144,-144 0,-79.4 64.6,-144 144,-144 z m 0,272 a -128,128 0 1 0 -128,-128 -128.144,128.144 0 0 0 128,128 z"
     id="path4"
     style="fill:#ffffff;stroke:#ffffff;stroke-opacity:1;stroke-width:7.2;stroke-miterlimit:4;stroke-dasharray:none" />
  <path
     d="m 216.13737,232 h 8.367 a -88.145,88.145 0 0 1 79.633,-79.633 V 136 a -8,8 0 0 1 0,-16 h 16 a -8,8 0 0 1 0,16 v 16.367 a -88.145,88.145 0 0 1 79.633,79.633 h 8.367 a -8,8 0 0 1 0,16 h -192 a -8,8 0 0 1 0,-16 z m 96,-64 a -72.1,72.1 0 0 0 -71.545,64 h 143.09 a -72.1,72.1 0 0 0 -71.545,-64 z"
     id="path6"
     style="fill:#ffffff;stroke:#ffffff;stroke-opacity:1;stroke-width:7.2;stroke-miterlimit:4;stroke-dasharray:none" />
</svg>
